<?xml version="1.0" encoding="UTF-8"?>
<svg id="Layer_1" xmlns="http://www.w3.org/2000/svg" version="1.1" viewBox="0 0 420 87">
  <!-- Generator: Adobe Illustrator 30.2.1, SVG Export Plug-In . SVG Version: 2.1.1 Build 1)  -->
  <defs>
    <style>
      .st0 {
        fill: #69d994;
      }

      .st1 {
        fill: #1c3133;
      }
    </style>
  </defs>
  <g>
    <g>
      <path class="st1" d="M116.05,30.58c1.66,2.09,2.52,4.69,2.52,7.36,0,3.97-1.37,7.14-4.18,9.45-2.74,2.31-6.64,3.46-11.61,3.46h-22.14V3.32h21.42c4.83,0,8.58,1.08,11.32,3.32,2.74,2.16,4.25,5.55,4.11,9.02.07,2.52-.65,4.98-2.16,7-1.51,1.88-3.53,3.25-5.84,3.89,2.6.5,4.9,1.95,6.56,4.04ZM92.25,22.58h7.57c1.59.07,3.1-.36,4.4-1.23,1.08-.94,1.66-2.31,1.51-3.68.07-1.44-.5-2.81-1.51-3.75-1.23-.94-2.81-1.37-4.4-1.3h-7.57v9.95ZM105.31,40.25c1.08-.94,1.66-2.38,1.59-3.82.07-1.51-.5-2.96-1.66-3.89-1.3-1.01-2.96-1.51-4.54-1.44h-8.44v10.53h8.51c1.59,0,3.17-.43,4.54-1.37Z"/>
      <path class="st1" d="M132.35,49.05c-2.96-1.51-5.34-3.89-7-6.78-1.73-3.17-2.6-6.71-2.52-10.31-.07-3.61.79-7.14,2.6-10.24,1.66-2.89,4.11-5.27,7.07-6.78,6.28-3.17,13.78-3.17,20.05,0,2.96,1.59,5.41,3.89,7.07,6.78,1.73,3.1,2.67,6.71,2.6,10.24.07,3.61-.79,7.14-2.6,10.24-1.66,2.89-4.11,5.27-7.14,6.78-3.1,1.59-6.56,2.45-10.1,2.38-3.53.14-6.92-.72-10.03-2.31ZM148.01,38.95c1.59-1.59,2.38-3.97,2.31-7-.07-3.03-.79-5.34-2.24-7-2.89-3.1-7.79-3.25-10.89-.36-.14.07-.22.22-.36.36-1.51,1.59-2.24,3.97-2.24,7s.72,5.41,2.24,7c1.37,1.59,3.39,2.45,5.48,2.45,2.24.07,4.26-.87,5.7-2.45Z"/>
      <path class="st1" d="M167.84,21.71c1.3-2.74,3.39-5.12,5.99-6.78,2.52-1.59,5.48-2.38,8.44-2.38,2.38,0,4.69.5,6.78,1.59,1.95.94,3.61,2.38,4.83,4.18V.72h11.61v50.13h-11.54v-5.41c-1.15,1.88-2.74,3.32-4.62,4.33-2.16,1.15-4.54,1.66-7,1.66-3.03,0-5.92-.79-8.44-2.38-2.6-1.66-4.69-4.04-5.99-6.85-1.51-3.17-2.24-6.71-2.16-10.24-.14-3.61.58-7.07,2.09-10.24ZM191.57,25.17c-1.51-1.66-3.61-2.52-5.84-2.52s-4.33.87-5.84,2.45c-1.59,1.66-2.38,3.89-2.38,6.78s.79,5.19,2.38,6.85c3.03,3.25,8.15,3.39,11.4.29.14-.07.22-.22.29-.29,1.59-1.66,2.38-3.97,2.38-6.85s-.79-5.05-2.38-6.71Z"/>
      <path class="st1" d="M252.01,13.06l-23.73,55.75h-12.48l8.65-19.26-15.36-36.5h12.98l8.73,23.66,8.65-23.66h12.55Z"/>
      <path class="st1" d="M264.2,49.7c-2.6-1.01-4.9-2.81-6.64-5.05-1.66-2.31-2.6-5.12-2.6-8.01h12.33c.07,1.51.72,2.96,1.8,4.04,1.15.94,2.6,1.44,4.04,1.37,1.44.07,2.88-.36,4.04-1.15,1.01-.79,1.51-2.02,1.51-3.32,0-1.08-.43-2.16-1.15-2.89-.87-.79-1.8-1.44-2.89-1.88-1.59-.65-3.25-1.23-4.9-1.66-2.6-.79-5.12-1.73-7.5-2.89-2.02-.94-3.75-2.38-5.05-4.18-1.37-1.88-2.09-4.26-2.09-7.21,0-4.4,1.59-7.86,4.83-10.39,3.24-2.52,7.36-3.75,12.55-3.75s9.45,1.23,12.69,3.75c3.17,2.52,4.9,5.99,5.12,10.46h-12.55c0-1.37-.65-2.67-1.66-3.61-1.15-.94-2.52-1.37-3.97-1.3-1.23-.07-2.45.36-3.39,1.15-.86.79-1.37,2.02-1.3,3.25,0,1.51.79,2.89,2.16,3.61,2.16,1.15,4.4,2.09,6.78,2.81,2.52.79,5.05,1.8,7.5,2.96,1.95,1.01,3.68,2.38,4.98,4.11,1.44,2.02,2.16,4.4,2.09,6.85,0,2.6-.72,5.19-2.09,7.36-1.44,2.31-3.53,4.11-5.99,5.27-2.89,1.37-6.06,2.02-9.3,1.95-3.17.07-6.35-.5-9.38-1.66Z"/>
      <path class="st1" d="M314.04,14.21c2.16-1.15,4.54-1.66,7-1.66,2.96,0,5.91.79,8.44,2.38,2.6,1.66,4.69,3.97,5.99,6.78,1.51,3.17,2.31,6.71,2.24,10.24.07,3.53-.65,7.07-2.24,10.24-1.3,2.81-3.39,5.19-5.99,6.85-2.53,1.59-5.48,2.45-8.44,2.38-2.38.07-4.83-.5-6.92-1.66-1.88-1.01-3.53-2.45-4.69-4.18v23.3h-11.61V13.06h11.54v5.34c1.15-1.73,2.74-3.25,4.69-4.18ZM323.49,25.1c-1.52-1.59-3.68-2.52-5.91-2.45-2.24,0-4.33.87-5.84,2.52-1.59,1.66-2.38,3.97-2.38,6.85s.79,5.19,2.38,6.85c3.1,3.25,8.22,3.39,11.47.29.07-.07.22-.22.29-.29,1.66-1.73,2.45-3.97,2.45-6.85s-.87-5.27-2.45-6.92Z"/>
      <path class="st1" d="M378.96,34.77h-26.18c.07,2.02.87,3.97,2.24,5.41,1.3,1.23,3.1,1.88,4.9,1.88,2.89,0,4.9-1.23,6.06-3.68h12.33c-.65,2.45-1.8,4.76-3.39,6.71-1.66,2.02-3.82,3.61-6.2,4.69-2.6,1.15-5.48,1.73-8.37,1.66-3.46.07-6.85-.72-9.88-2.38-2.88-1.59-5.19-3.89-6.78-6.78-1.66-3.17-2.52-6.71-2.45-10.31-.07-3.61.72-7.14,2.38-10.31,1.51-2.89,3.89-5.19,6.71-6.78,6.2-3.17,13.49-3.17,19.69-.07,2.81,1.51,5.12,3.75,6.64,6.56,1.66,3.03,2.45,6.49,2.38,9.95.14,1.23.07,2.31-.07,3.46ZM367.35,28.35c.07-1.8-.65-3.53-2.02-4.76-1.44-1.23-3.25-1.8-5.05-1.73-1.8-.07-3.53.58-4.9,1.73-1.37,1.23-2.24,2.96-2.45,4.83h14.42v-.07Z"/>
      <path class="st1" d="M385.23,21.71c1.51-2.89,3.89-5.19,6.71-6.78,3.03-1.59,6.42-2.45,9.88-2.38,4.76,0,8.73,1.23,11.9,3.75,3.17,2.52,5.26,5.99,6.27,10.53h-12.33c-1.01-2.89-3.03-4.33-6.06-4.33-2.02-.07-3.89.87-5.05,2.45-1.3,1.66-1.88,4.04-1.88,7.07s.65,5.41,1.88,7.07c1.15,1.59,3.03,2.52,5.05,2.45,2.96,0,4.98-1.44,6.06-4.33h12.33c-.79,4.11-3.03,7.79-6.27,10.46-3.17,2.52-7.14,3.82-11.83,3.82-3.46.07-6.85-.72-9.88-2.38-2.89-1.59-5.19-3.89-6.71-6.78-1.66-3.17-2.52-6.71-2.38-10.31-.22-3.61.58-7.14,2.31-10.31Z"/>
    </g>
    <g>
      <path class="st0" d="M51.14,33.61c3.03,0,5.48-2.45,5.48-5.48s-2.45-5.48-5.48-5.48-5.48,2.45-5.48,5.48,2.45,5.48,5.48,5.48Z"/>
      <path class="st0" d="M5.41,33.54c2.99,0,5.41-2.42,5.41-5.41s-2.42-5.41-5.41-5.41S0,25.14,0,28.13s2.42,5.41,5.41,5.41Z"/>
      <path class="st0" d="M28.35,56.4c3.03,0,5.48-2.45,5.48-5.48s-2.45-5.48-5.48-5.48-5.48,2.45-5.48,5.48,2.45,5.48,5.48,5.48Z"/>
      <path class="st0" d="M35.05,34.84v-12.91h6.85c1.08,2.02,1.66,4.26,1.59,6.49,0,2.24-.5,4.47-1.59,6.42h-6.85Z"/>
      <path class="st0" d="M21.28,34.84v-12.91h-6.85c-1.08,2.02-1.66,4.26-1.59,6.49,0,2.24.5,4.47,1.59,6.42h6.85Z"/>
      <path class="st0" d="M21.71,35.05h12.91v6.85c-2.02,1.08-4.26,1.59-6.49,1.59s-4.47-.5-6.42-1.59v-6.85Z"/>
      <path class="st0" d="M21.71,21.49h12.91v-6.85c-2.02-1.08-4.26-1.59-6.49-1.59s-4.47.5-6.42,1.59v6.85Z"/>
      <path class="st0" d="M5.41,8.29c1.59,0,2.89-1.29,2.89-2.89s-1.29-2.89-2.89-2.89-2.89,1.29-2.89,2.89,1.29,2.89,2.89,2.89Z"/>
      <path class="st0" d="M51.14,8.29c1.59,0,2.89-1.29,2.89-2.89s-1.29-2.89-2.89-2.89-2.89,1.29-2.89,2.89,1.29,2.89,2.89,2.89Z"/>
      <path class="st0" d="M5.41,54.02c1.59,0,2.89-1.29,2.89-2.89s-1.29-2.89-2.89-2.89-2.89,1.29-2.89,2.89,1.29,2.89,2.89,2.89Z"/>
      <path class="st0" d="M51.14,54.02c1.59,0,2.89-1.29,2.89-2.89s-1.29-2.89-2.89-2.89-2.89,1.29-2.89,2.89,1.29,2.89,2.89,2.89Z"/>
      <path class="st0" d="M28.35,10.82c2.99,0,5.41-2.42,5.41-5.41S31.33,0,28.35,0s-5.41,2.42-5.41,5.41,2.42,5.41,5.41,5.41Z"/>
    </g>
  </g>
  <g>
    <path class="st0" d="M323.89,80.99h8.32v4.9h-14.67v-26.07h6.35v21.18h0Z"/>
    <path class="st0" d="M354.68,77.05h-14.38c.1,1.29.51,2.27,1.25,2.95.73.69,1.63,1.02,2.69,1.02,1.59,0,2.68-.67,3.3-2.01h6.76c-.35,1.36-.97,2.59-1.88,3.68-.9,1.09-2.03,1.95-3.4,2.56-1.36.62-2.89.93-4.57.93-2.03,0-3.84-.43-5.42-1.3-1.59-.87-2.82-2.11-3.71-3.71-.89-1.61-1.33-3.49-1.33-5.65s.44-4.04,1.32-5.65c.88-1.61,2.11-2.85,3.69-3.71,1.59-.87,3.4-1.3,5.46-1.3s3.79.42,5.35,1.26c1.56.84,2.78,2.04,3.66,3.61.88,1.56,1.32,3.38,1.32,5.46,0,.59-.04,1.21-.11,1.86h0ZM348.3,73.51c0-1.09-.37-1.95-1.11-2.6-.74-.64-1.67-.97-2.78-.97s-1.96.31-2.69.93c-.73.62-1.18,1.5-1.36,2.64h7.95,0Z"/>
    <path class="st0" d="M358.09,69.88c.81-1.61,1.9-2.85,3.29-3.71,1.39-.87,2.94-1.3,4.64-1.3,1.46,0,2.74.3,3.85.89,1.1.59,1.95,1.38,2.55,2.34v-2.94h6.35v20.73h-6.35v-2.94c-.62.97-1.48,1.75-2.58,2.34-1.1.59-2.38.89-3.85.89-1.68,0-3.22-.44-4.61-1.32-1.39-.88-2.48-2.13-3.29-3.75-.81-1.62-1.2-3.5-1.2-5.63s.4-4,1.2-5.61ZM371.08,71.77c-.88-.92-1.95-1.38-3.21-1.38s-2.34.45-3.22,1.36c-.88.9-1.32,2.15-1.32,3.74s.44,2.84,1.32,3.77c.88.93,1.95,1.39,3.22,1.39s2.34-.45,3.21-1.38c.88-.92,1.32-2.16,1.32-3.75s-.44-2.83-1.32-3.75Z"/>
    <path class="st0" d="M392.5,65.92c1.11-.66,2.35-.98,3.72-.98v6.72h-1.75c-1.59,0-2.78.34-3.56,1.02-.79.69-1.19,1.88-1.19,3.58v9.62h-6.35v-20.73h6.35v3.45c.74-1.14,1.67-2.03,2.78-2.69h0Z"/>
    <path class="st0" d="M417.7,67.3c1.45,1.57,2.17,3.74,2.17,6.48v12.11h-6.31v-11.25c0-1.38-.36-2.47-1.07-3.23-.72-.76-1.68-1.15-2.9-1.15s-2.18.38-2.9,1.15c-.72.76-1.08,1.85-1.08,3.23v11.25h-6.35v-20.73h6.35v2.75c.64-.92,1.51-1.64,2.6-2.17,1.09-.53,2.32-.8,3.68-.8,2.42,0,4.36.79,5.81,2.36h0Z"/>
  </g>
</svg>