<svg xmlns="http://www.w3.org/2000/svg" viewBox="0 0 800 300" font-family="system-ui, -apple-system, sans-serif">
  <rect width="800" height="300" fill="#F8F8F8"/>

  <!-- Title -->
  <text x="400" y="35" text-anchor="middle" font-size="20" font-weight="700" fill="#1C3133">Female Body Fat Percentage Ranges</text>

  <!-- Percentage axis -->
  <line x1="60" y1="180" x2="740" y2="180" stroke="#DFE2E2" stroke-width="1"/>

  <!-- Scale: 0% to 45%, mapped to x=60 to x=740 => 1% = 15.11px -->
  <!-- Essential: 10-13% -->
  <rect x="211" y="90" width="45" height="80" rx="4" fill="#1C3133"/>
  <text x="234" y="120" text-anchor="middle" font-size="10" font-weight="600" fill="#FFFFFF">Essential</text>
  <text x="234" y="135" text-anchor="middle" font-size="10" font-weight="600" fill="#FFFFFF">Fat</text>
  <text x="234" y="155" text-anchor="middle" font-size="12" font-weight="700" fill="#69D994">10-13%</text>

  <!-- Athletes: 14-20% -->
  <rect x="271" y="90" width="91" height="80" rx="4" fill="#69D994"/>
  <text x="317" y="128" text-anchor="middle" font-size="13" font-weight="600" fill="#1C3133">Athletes</text>
  <text x="317" y="148" text-anchor="middle" font-size="13" font-weight="700" fill="#1C3133">14-20%</text>

  <!-- Fitness: 21-24% -->
  <rect x="377" y="90" width="45" height="80" rx="4" fill="#9DDEAD"/>
  <text x="400" y="128" text-anchor="middle" font-size="12" font-weight="600" fill="#1C3133">Fitness</text>
  <text x="400" y="148" text-anchor="middle" font-size="12" font-weight="700" fill="#1C3133">21-24%</text>

  <!-- Average: 25-31% -->
  <rect x="438" y="90" width="91" height="80" rx="4" fill="#CCEDD6"/>
  <text x="484" y="128" text-anchor="middle" font-size="13" font-weight="600" fill="#1C3133">Average</text>
  <text x="484" y="148" text-anchor="middle" font-size="13" font-weight="700" fill="#1C3133">25-31%</text>

  <!-- Obese: 32%+ -->
  <rect x="543" y="90" width="180" height="80" rx="4" fill="#E87D7D"/>
  <text x="633" y="128" text-anchor="middle" font-size="14" font-weight="600" fill="#FFFFFF">Obese</text>
  <text x="633" y="148" text-anchor="middle" font-size="14" font-weight="700" fill="#FFFFFF">32%+</text>

  <!-- Tick marks -->
  <text x="60" y="200" text-anchor="middle" font-size="11" fill="#7C8D90">0%</text>
  <text x="136" y="200" text-anchor="middle" font-size="11" fill="#7C8D90">5%</text>
  <text x="211" y="200" text-anchor="middle" font-size="11" fill="#7C8D90">10%</text>
  <text x="287" y="200" text-anchor="middle" font-size="11" fill="#7C8D90">15%</text>
  <text x="362" y="200" text-anchor="middle" font-size="11" fill="#7C8D90">20%</text>
  <text x="438" y="200" text-anchor="middle" font-size="11" fill="#7C8D90">25%</text>
  <text x="513" y="200" text-anchor="middle" font-size="11" fill="#7C8D90">30%</text>
  <text x="589" y="200" text-anchor="middle" font-size="11" fill="#7C8D90">35%</text>
  <text x="664" y="200" text-anchor="middle" font-size="11" fill="#7C8D90">40%</text>
  <text x="740" y="200" text-anchor="middle" font-size="11" fill="#7C8D90">45%</text>

  <!-- Tick lines -->
  <line x1="60" y1="170" x2="60" y2="185" stroke="#DFE2E2" stroke-width="1"/>
  <line x1="136" y1="170" x2="136" y2="185" stroke="#DFE2E2" stroke-width="1"/>
  <line x1="211" y1="170" x2="211" y2="185" stroke="#DFE2E2" stroke-width="1"/>
  <line x1="287" y1="170" x2="287" y2="185" stroke="#DFE2E2" stroke-width="1"/>
  <line x1="362" y1="170" x2="362" y2="185" stroke="#DFE2E2" stroke-width="1"/>
  <line x1="438" y1="170" x2="438" y2="185" stroke="#DFE2E2" stroke-width="1"/>
  <line x1="513" y1="170" x2="513" y2="185" stroke="#DFE2E2" stroke-width="1"/>
  <line x1="589" y1="170" x2="589" y2="185" stroke="#DFE2E2" stroke-width="1"/>
  <line x1="664" y1="170" x2="664" y2="185" stroke="#DFE2E2" stroke-width="1"/>
  <line x1="740" y1="170" x2="740" y2="185" stroke="#DFE2E2" stroke-width="1"/>

  <!-- Healthy range indicator -->
  <text x="340" y="75" text-anchor="middle" font-size="11" fill="#69D994">Healthy range</text>
  <line x1="271" y1="80" x2="422" y2="80" stroke="#69D994" stroke-width="2"/>

  <!-- Note about women -->
  <rect x="200" y="220" width="400" height="28" rx="6" fill="#E5F6EB" stroke="#69D994" stroke-width="1"/>
  <text x="400" y="239" text-anchor="middle" font-size="11" fill="#1C3133">Women require more essential fat for reproductive function</text>

  <!-- Source -->
  <text x="400" y="268" text-anchor="middle" font-size="11" fill="#7C8D90">Adapted from ACSM Guidelines for Exercise Testing and Prescription &amp; ACE body fat classification ranges</text>

  <!-- Placeholder note -->
  <text x="400" y="290" text-anchor="middle" font-size="10" fill="#9DDEAD">Placeholder -- see IMAGE_SPECS.md for final design</text>
</svg>
