<svg id="Artwork" xmlns="http://www.w3.org/2000/svg" viewBox="0 0 357 357"><defs><style>.cls-1{fill:#1c3133;}.cls-2{fill:#69d994;}</style></defs><rect class="cls-1" width="357" height="357"/><circle class="cls-2" cx="246.84" cy="178.35" r="16.25"/><circle class="cls-2" cx="110.16" cy="178.35" r="16.25"/><circle class="cls-2" cx="178.73" cy="246.51" r="16.25"/><path class="cls-2" d="M198.83,198.4V159.83h20.51a41,41,0,0,1,4.83,19.39,40.13,40.13,0,0,1-4.72,19.18Z"/><path class="cls-2" d="M157.65,198.4V159.83H137.14a41.16,41.16,0,0,0-4.83,19.39A40.13,40.13,0,0,0,137,198.4Z"/><path class="cls-2" d="M159,199.17h38.57v20.51a41,41,0,0,1-19.39,4.83A40.13,40.13,0,0,1,159,219.79Z"/><path class="cls-2" d="M159,158.53h38.57V138a41,41,0,0,0-19.39-4.84A40.13,40.13,0,0,0,159,137.91Z"/><circle class="cls-2" cx="110.16" cy="110.49" r="8.59"/><circle class="cls-2" cx="246.84" cy="110.49" r="8.59"/><circle class="cls-2" cx="110.16" cy="247.04" r="8.59"/><circle class="cls-2" cx="246.84" cy="247.04" r="8.59"/><circle class="cls-2" cx="178.73" cy="110.49" r="16.25"/></svg>